<?xml version="1.0" standalone="no"?>
<!DOCTYPE svg PUBLIC "-//W3C//DTD SVG 20010904//EN"
 "http://www.w3.org/TR/2001/REC-SVG-20010904/DTD/svg10.dtd">
<svg version="1.0" xmlns="http://www.w3.org/2000/svg"
 width="762.000000pt" height="614.000000pt" viewBox="0 0 762.000000 614.000000"
 preserveAspectRatio="xMidYMid meet">

<g transform="translate(0.000000,614.000000) scale(0.100000,-0.100000)"
fill="#000000" stroke="none">
<path d="M3607 3965 c-130 -33 -241 -113 -286 -206 -23 -47 -24 -48 50 50 44
57 111 101 199 132 94 33 300 33 415 0 203 -57 354 -173 437 -334 29 -58 16
-55 -31 8 -95 125 -286 243 -466 286 -125 30 -305 30 -388 1 -62 -23 -142 -75
-152 -100 -5 -13 -3 -13 17 0 111 72 371 73 514 3 68 -33 132 -97 169 -168 16
-30 41 -62 55 -70 84 -51 177 -174 217 -288 25 -70 27 -85 28 -284 1 -115 5
-221 9 -235 32 -101 65 -125 195 -140 170 -19 242 -44 301 -105 28 -28 34 -44
38 -89 4 -47 -1 -65 -27 -123 -64 -135 -61 -202 15 -407 25 -66 47 -140 49
-165 l4 -46 -8 40 c-5 22 -26 85 -46 140 -20 55 -43 120 -52 145 -10 27 -17
78 -17 125 -1 71 3 88 34 155 89 189 7 282 -275 311 -115 12 -160 30 -192 78
-37 55 -43 96 -43 301 0 223 -9 271 -68 384 -35 67 -147 196 -170 196 -6 0 -5
-19 4 -52 23 -90 35 -238 28 -345 l-7 -101 29 -15 c72 -38 108 -100 107 -187
-1 -148 -104 -253 -232 -236 -35 5 -51 3 -54 -6 -3 -8 -6 -5 -6 6 -1 15 -9 10
-38 -21 -55 -58 -196 -113 -290 -113 -24 0 -43 -5 -43 -10 0 -6 -6 -5 -14 2
-8 7 -12 16 -10 20 9 14 -45 39 -83 40 -50 0 -89 -16 -103 -42 -9 -17 -6 -25
19 -50 39 -40 122 -46 151 -11 11 12 36 20 85 24 84 7 174 37 248 81 l54 33
-4 -131 c-2 -72 -1 -151 4 -175 l8 -44 80 -27 c44 -14 141 -54 215 -87 74 -34
152 -67 173 -74 21 -8 70 -40 108 -73 135 -116 262 -293 423 -588 20 -38 39
-68 42 -68 2 0 28 12 57 26 180 91 266 225 268 423 1 115 17 69 18 -54 1 -142
-26 -221 -106 -306 -49 -53 -106 -89 -168 -109 -45 -14 -76 -37 -35 -25 102
28 209 103 257 179 74 116 89 299 37 452 -21 62 -84 159 -162 249 -129 147
-142 207 -78 369 32 82 37 106 32 144 -19 137 -154 237 -374 278 -86 15 -97
20 -143 62 -81 72 -96 114 -109 287 -5 77 -15 138 -28 170 -11 28 -32 81 -46
119 -68 174 -207 296 -416 367 -85 29 -109 32 -230 35 -95 3 -152 -1 -193 -11z
m1262 -1067 c79 -24 128 -48 171 -85 38 -31 90 -109 90 -132 -1 -9 -9 0 -20
20 -39 73 -118 128 -270 184 -132 49 -113 57 29 13z m-1166 -425 c-7 -2 -19
-2 -25 0 -7 3 -2 5 12 5 14 0 19 -2 13 -5z"/>
<path d="M3555 3823 c-125 -18 -202 -64 -279 -166 -61 -81 -51 -75 -225 -133
-179 -60 -271 -169 -271 -320 0 -74 23 -129 91 -217 75 -96 93 -137 87 -198
-7 -73 -41 -127 -141 -229 -77 -78 -96 -104 -107 -144 -18 -65 -5 -125 51
-241 55 -113 59 -186 16 -283 -20 -45 -28 -78 -28 -121 -1 -62 7 -101 19 -101
4 0 27 33 52 72 54 86 188 224 256 264 27 16 69 42 94 59 25 17 102 59 172 93
116 58 127 66 133 95 4 18 9 40 11 49 4 12 -11 27 -48 51 -68 43 -135 118
-177 196 -25 48 -41 65 -69 77 -147 61 -197 301 -82 397 21 19 29 36 35 78 9
74 32 154 61 211 l24 47 41 -44 c75 -81 281 -196 471 -264 104 -36 145 -56
176 -85 l23 -21 42 48 c30 35 55 52 87 61 l45 13 8 64 c16 130 -6 332 -49 438
-18 46 -40 59 -149 92 -33 10 -51 18 -40 18 11 0 50 -10 88 -23 37 -12 67 -20
67 -18 0 18 -81 98 -123 122 -79 45 -266 78 -362 63z m-623 -398 c-66 -75 -95
-193 -73 -295 6 -30 30 -90 52 -133 22 -44 39 -80 37 -82 -8 -7 -132 169 -145
207 -41 117 17 262 136 341 39 26 37 11 -7 -38z m-108 -919 c-47 -94 -46 -138
6 -260 46 -108 50 -158 18 -226 l-21 -45 -8 64 c-6 43 -22 93 -50 150 -50 104
-63 195 -34 252 15 30 115 142 121 136 2 -1 -13 -33 -32 -71z"/>
<path d="M4126 3003 c-10 -3 -28 -14 -39 -24 -12 -10 -24 -19 -29 -19 -4 0 -8
-9 -8 -20 0 -11 -6 -23 -13 -26 -8 -3 -20 -35 -27 -73 -12 -67 -12 -69 14
-113 40 -68 97 -77 165 -26 31 25 45 45 56 82 18 61 20 140 3 130 -7 -4 -8 -3
-4 5 8 12 -9 45 -39 75 -16 16 -41 19 -79 9z"/>
<path d="M6000 677 c0 -258 -2 -295 -17 -317 -9 -14 -22 -28 -27 -32 -6 -4 10
-8 35 -8 31 0 55 6 70 19 23 19 24 24 29 223 3 111 4 249 2 306 l-3 102 -45 0
-44 0 0 -293z m25 -327 c3 -5 1 -10 -4 -10 -6 0 -11 5 -11 10 0 6 2 10 4 10 3
0 8 -4 11 -10z"/>
</g>
</svg>
